<?xml version="1.0" encoding="utf-8"?>
<!-- Generator: Adobe Illustrator 16.0.0, SVG Export Plug-In . SVG Version: 6.00 Build 0)  -->
<!DOCTYPE svg PUBLIC "-//W3C//DTD SVG 1.1//EN" "http://www.w3.org/Graphics/SVG/1.1/DTD/svg11.dtd">
<svg version="1.1" xmlns="http://www.w3.org/2000/svg" xmlns:xlink="http://www.w3.org/1999/xlink" x="0px" y="0px" width="40px"
	 height="40px" viewBox="0 0 40 40" enable-background="new 0 0 40 40" xml:space="preserve">
<g id="Layer_1">
</g>
<g id="_x31_2__x2F__Icons">
	<ellipse fill="none" cx="20" cy="20.001" rx="20" ry="19.979"/>
	<g>
		<path fill="#FFFFFF" stroke="#FFFFFF" stroke-width="1.224" stroke-miterlimit="10" d="M25.436,22.134
			c-0.139-0.252-0.347-0.506-0.619-0.758c-0.307-0.285-0.584-0.516-0.822-0.686c-0.232-0.166-0.568-0.36-0.996-0.576
			c-0.438-0.221-0.793-0.39-1.056-0.502c-0.262-0.11-0.646-0.265-1.147-0.46c-0.465-0.183-0.808-0.321-1.033-0.418
			c-0.229-0.098-0.525-0.234-0.901-0.415c-0.409-0.196-0.714-0.371-0.931-0.536c-0.198-0.148-0.413-0.332-0.636-0.547
			c-0.283-0.271-0.488-0.572-0.61-0.896c-0.114-0.306-0.172-0.637-0.172-0.986c0-0.914,0.406-1.696,1.172-2.262
			c0.7-0.517,1.596-0.779,2.66-0.779c0.465,0,0.943,0.064,1.42,0.195c0.46,0.126,0.863,0.272,1.199,0.433
			c0.326,0.158,0.638,0.334,0.926,0.523c0.28,0.184,0.481,0.324,0.616,0.432l0.921-1.713c-0.012-0.012-0.024-0.023-0.038-0.035
			c-0.021-0.021-0.128-0.113-0.494-0.375c-0.26-0.187-0.536-0.355-0.821-0.502c-0.287-0.144-0.676-0.299-1.155-0.456
			c-0.467-0.152-0.956-0.256-1.451-0.311l-0.651-0.07V7.412h-1.417v3.026l-0.592,0.116c-1.368,0.271-2.444,0.85-3.288,1.772
			c-0.817,0.896-1.216,1.905-1.216,3.087c0,0.349,0.035,0.683,0.104,0.993c0.072,0.325,0.161,0.615,0.264,0.863
			c0.094,0.229,0.231,0.461,0.409,0.687c0.203,0.261,0.398,0.485,0.576,0.67c0.161,0.167,0.384,0.348,0.662,0.539
			c0.301,0.207,0.561,0.377,0.773,0.502c0.204,0.121,0.486,0.266,0.839,0.428c0.361,0.168,0.648,0.295,0.859,0.382
			c0.218,0.09,0.516,0.215,0.893,0.374c0.513,0.205,0.912,0.373,1.175,0.492c0.256,0.118,0.58,0.278,0.989,0.493
			c0.445,0.237,0.774,0.457,1.004,0.674c0.231,0.221,0.437,0.485,0.616,0.792c0.214,0.367,0.321,0.762,0.321,1.176
			c0,1.025-0.415,1.867-1.198,2.433c-0.714,0.513-1.547,0.772-2.476,0.772c-0.407,0-0.818-0.044-1.222-0.135
			c-1.296-0.268-2.531-0.9-3.664-1.879l-1.167,1.577c0.019,0.02,0.043,0.042,0.068,0.067c0.057,0.058,0.206,0.193,0.604,0.501
			c0.302,0.233,0.636,0.456,0.989,0.66c0.344,0.201,0.8,0.407,1.354,0.611c0.539,0.197,1.108,0.342,1.694,0.424l0.629,0.088v2.986
			h1.417v-2.97l0.61-0.102c1.375-0.232,2.458-0.817,3.31-1.795c0.84-0.961,1.249-2.079,1.249-3.419c0-0.419-0.054-0.818-0.158-1.188
			C25.717,22.734,25.585,22.404,25.436,22.134z"/>
		<path d="M22.043,30.646l0.208-0.052c1.364-0.339,2.51-1.032,3.404-2.059c1.03-1.18,1.554-2.603,1.554-4.234
			c0-0.538-0.068-1.054-0.207-1.533c-0.133-0.468-0.3-0.883-0.495-1.238c-0.201-0.364-0.489-0.721-0.854-1.059
			c-0.346-0.321-0.663-0.584-0.941-0.782c-0.286-0.205-0.663-0.423-1.149-0.669c-0.452-0.229-0.83-0.408-1.125-0.534
			c-0.271-0.114-0.665-0.271-1.177-0.471c-0.449-0.179-0.78-0.313-1-0.406c-0.218-0.091-0.502-0.225-0.856-0.395
			c-0.333-0.159-0.579-0.299-0.733-0.415c-0.159-0.12-0.337-0.273-0.527-0.454c-0.154-0.15-0.257-0.295-0.312-0.446
			c-0.063-0.162-0.093-0.341-0.093-0.544c0-0.525,0.216-0.93,0.679-1.271c0.493-0.366,1.157-0.553,1.972-0.553
			c0.363,0,0.74,0.054,1.116,0.155c0.391,0.105,0.726,0.229,1.001,0.358c0.281,0.137,0.547,0.287,0.792,0.447
			c0.329,0.216,0.471,0.323,0.528,0.368c0.077,0.063,0.13,0.107,0.15,0.124l0.076,0.068c0.196,0.157,0.457,0.231,0.708,0.188
			c0.292-0.033,0.532-0.205,0.671-0.474l1.16-2.154c0.228-0.39,0.173-0.81-0.145-1.154c-0.057-0.057-0.135-0.133-0.229-0.221
			c-0.099-0.09-0.296-0.242-0.604-0.464c-0.306-0.22-0.635-0.421-0.977-0.595c-0.339-0.173-0.771-0.344-1.319-0.524
			c-0.338-0.111-0.692-0.201-1.052-0.27l-0.224-0.041V7.14c0-0.264-0.092-0.496-0.266-0.673c-0.172-0.178-0.396-0.272-0.652-0.272
			h-1.948c-0.247,0-0.47,0.097-0.647,0.279c-0.177,0.184-0.271,0.413-0.271,0.666v2.298l-0.204,0.056
			c-1.342,0.36-2.47,1.034-3.353,1.999c-1.021,1.118-1.537,2.437-1.537,3.922c0,0.44,0.045,0.866,0.132,1.267
			c0.09,0.398,0.199,0.759,0.328,1.068c0.138,0.334,0.332,0.662,0.577,0.974c0.231,0.293,0.452,0.552,0.661,0.767
			c0.219,0.226,0.494,0.452,0.842,0.691c0.322,0.223,0.605,0.405,0.841,0.546c0.242,0.143,0.552,0.302,0.943,0.482
			c0.382,0.178,0.685,0.31,0.904,0.4c0.217,0.091,0.511,0.214,0.897,0.376c0.503,0.202,0.887,0.362,1.132,0.475
			c0.234,0.105,0.537,0.258,0.928,0.464c0.427,0.227,0.64,0.388,0.742,0.485c0.147,0.139,0.284,0.314,0.403,0.522
			c0.103,0.174,0.152,0.353,0.152,0.547c0,0.629-0.227,1.097-0.695,1.433c-0.518,0.374-1.104,0.556-1.796,0.556
			c-0.325,0-0.655-0.037-0.982-0.11c-1.153-0.238-2.256-0.821-3.271-1.733c-0.183-0.207-0.395-0.304-0.633-0.304
			c-0.038,0-0.078,0.002-0.114,0.008c-0.396,0.052-0.576,0.262-0.636,0.349l-1.5,2.027c-0.266,0.367-0.249,0.812,0.046,1.184
			c0.063,0.08,0.155,0.18,0.285,0.309c0.135,0.133,0.368,0.328,0.716,0.596c0.344,0.265,0.721,0.518,1.118,0.748
			c0.407,0.236,0.909,0.464,1.535,0.693c0.419,0.157,0.863,0.284,1.32,0.379l0.218,0.046v2.202c0,0.256,0.093,0.479,0.273,0.667
			c0.176,0.182,0.398,0.278,0.645,0.278h1.948c0.259,0,0.479-0.093,0.655-0.273c0.171-0.178,0.263-0.409,0.263-0.672V30.646z
			 M21.514,29.792l-0.381,0.064v3.011h-1.964v-3.021l-0.393-0.055c-0.603-0.085-1.191-0.232-1.75-0.439
			c-0.569-0.21-1.04-0.422-1.396-0.63c-0.366-0.212-0.71-0.44-1.019-0.681c-0.317-0.244-0.529-0.422-0.632-0.524l-0.235-0.25
			l1.483-2.002l0.219,0.188c1.095,0.948,2.286,1.562,3.541,1.82c0.387,0.087,0.778,0.13,1.169,0.13c0.871,0,1.651-0.242,2.318-0.725
			c0.707-0.511,1.082-1.271,1.082-2.2c0-0.361-0.095-0.707-0.282-1.03c-0.168-0.286-0.358-0.531-0.566-0.729
			c-0.21-0.198-0.519-0.404-0.944-0.63c-0.402-0.212-0.722-0.373-0.975-0.485c-0.261-0.12-0.656-0.285-1.163-0.488
			c-0.382-0.162-0.68-0.286-0.896-0.376c-0.211-0.087-0.503-0.216-0.869-0.386c-0.372-0.173-0.653-0.316-0.863-0.44
			c-0.217-0.129-0.482-0.302-0.789-0.513c-0.292-0.2-0.529-0.394-0.703-0.574c-0.194-0.201-0.395-0.435-0.597-0.693
			c-0.193-0.247-0.345-0.501-0.447-0.751c-0.108-0.264-0.202-0.571-0.278-0.91c-0.073-0.333-0.11-0.688-0.11-1.059
			c0-1.257,0.422-2.329,1.289-3.278c0.887-0.969,2.01-1.576,3.438-1.856l0.369-0.072V7.133h1.964v3.049l0.405,0.045
			c0.515,0.056,1.021,0.163,1.506,0.32c0.483,0.159,0.885,0.317,1.192,0.472c0.3,0.154,0.589,0.33,0.857,0.523
			c0.371,0.268,0.488,0.367,0.521,0.397l0.195,0.197l-1.176,2.185l-0.251-0.2c-0.13-0.104-0.325-0.24-0.596-0.418
			c-0.285-0.185-0.586-0.355-0.896-0.506c-0.318-0.154-0.706-0.294-1.152-0.415c-0.455-0.124-0.909-0.188-1.35-0.188
			c-1.006,0-1.849,0.245-2.502,0.729c-0.691,0.511-1.057,1.215-1.057,2.032c0,0.314,0.052,0.611,0.154,0.883
			c0.105,0.284,0.288,0.551,0.54,0.794c0.213,0.202,0.419,0.381,0.611,0.524c0.204,0.155,0.493,0.321,0.885,0.508
			c0.371,0.18,0.663,0.314,0.891,0.411c0.224,0.095,0.564,0.233,1.025,0.414c0.505,0.197,0.891,0.353,1.154,0.463
			c0.265,0.112,0.624,0.284,1.071,0.51c0.439,0.221,0.787,0.422,1.031,0.596c0.257,0.185,0.542,0.422,0.851,0.71
			c0.294,0.271,0.52,0.549,0.674,0.827c0.159,0.289,0.299,0.638,0.414,1.037c0.111,0.396,0.169,0.823,0.169,1.27
			c0,1.41-0.431,2.591-1.318,3.608C24.087,28.934,22.953,29.549,21.514,29.792z"/>
	</g>
</g>
<g id="Node_icon">
</g>
</svg>
