<?xml version="1.0" encoding="utf-8"?>
<!-- Generator: Adobe Illustrator 16.0.0, SVG Export Plug-In . SVG Version: 6.00 Build 0)  -->
<!DOCTYPE svg PUBLIC "-//W3C//DTD SVG 1.1//EN" "http://www.w3.org/Graphics/SVG/1.1/DTD/svg11.dtd">
<svg version="1.1" xmlns="http://www.w3.org/2000/svg" xmlns:xlink="http://www.w3.org/1999/xlink" x="0px" y="0px" width="40px"
	 height="40px" viewBox="0 0 40 40" enable-background="new 0 0 40 40" xml:space="preserve">
<g id="Layer_1">
</g>
<g id="_x31_2__x2F__Icons">
	<circle fill="none" cx="20" cy="20" r="20"/>
	<g>
		<path fill="#CCCCCC" d="M4.945,17.72l3.462-5.958h5.009l-2.778,5.746l18.718,0.212l5.42,1.01l0.41,5.299h-2.732
			c0,0-0.339-3.161-3.654-3.172c-3.315-0.012-3.099,3.396-3.229,3.172c-0.131-0.223-10.878,0.011-10.878,0.011
			s-0.332-2.983-3.603-3.183c-3.274-0.2-3.382,3.172-3.382,3.172H4.945V17.72z"/>
		<g>
			<polygon fill="#FFFFFF" points="10.365,17.902 29.766,17.69 24.881,12.368 13.782,11.945 			"/>
			<ellipse fill="#FFFFFF" cx="28.707" cy="24.212" rx="3.074" ry="3.172"/>
			<ellipse fill="#FFFFFF" cx="11.151" cy="24.212" rx="3.382" ry="3.489"/>
			<path d="M35.269,18.344l-5.149-0.882l-5.043-5.807c-0.094-0.111-0.231-0.172-0.375-0.172H8.419c-0.173,0-0.334,0.091-0.423,0.239
				l-3.606,5.944c-0.05,0.081-0.075,0.17-0.075,0.261v6.368c0,0.277,0.224,0.503,0.5,0.503h2.583l0.078,0.35
				c0.389,1.764,1.958,3.045,3.733,3.045c1.774,0,3.343-1.281,3.732-3.045l0.078-0.35h9.964l0.078,0.35
				c0.39,1.764,1.959,3.045,3.732,3.045c1.775,0,3.343-1.281,3.733-3.045l0.078-0.35h2.582c0.275,0,0.499-0.226,0.499-0.503v-5.453
				C35.685,18.595,35.51,18.385,35.269,18.344z M20.037,12.489h4.44l4.286,4.936h-8.727V12.489z M19.041,12.489v4.936h-7.972
				l2.765-4.936H19.041z M11.209,27.188c-1.556,0-2.826-1.294-2.832-2.883c0.005-1.603,1.276-2.903,2.832-2.903
				c1.56,0,2.829,1.297,2.829,2.893C14.038,25.89,12.769,27.188,11.209,27.188z M28.793,27.188c-1.56,0-2.831-1.298-2.831-2.893
				c0-1.596,1.271-2.893,2.831-2.893c1.561,0,2.831,1.297,2.831,2.893C31.624,25.89,30.354,27.188,28.793,27.188z M34.689,23.791
				h-2.085l-0.078-0.351c-0.39-1.764-1.958-3.043-3.733-3.043c-1.771,0-3.341,1.28-3.733,3.043l-0.076,0.351h-9.965l-0.078-0.351
				c-0.39-1.764-1.958-3.043-3.732-3.043c-1.775,0-3.344,1.28-3.733,3.042l-0.078,0.352H5.313V18.07l3.386-5.581h3.99L9.782,17.68
				c-0.086,0.154-0.085,0.344,0.001,0.497c0.089,0.157,0.255,0.254,0.433,0.254h19.568l4.905,0.834V23.791z"/>
		</g>
	</g>
</g>
<g id="Node_icon">
</g>
</svg>
