<?xml version="1.0" encoding="utf-8"?>
<!-- Generator: Adobe Illustrator 16.0.0, SVG Export Plug-In . SVG Version: 6.00 Build 0)  -->
<!DOCTYPE svg PUBLIC "-//W3C//DTD SVG 1.1//EN" "http://www.w3.org/Graphics/SVG/1.1/DTD/svg11.dtd">
<svg version="1.1" xmlns="http://www.w3.org/2000/svg" xmlns:xlink="http://www.w3.org/1999/xlink" x="0px" y="0px" width="40px"
	 height="40px" viewBox="0 0 40 40" enable-background="new 0 0 40 40" xml:space="preserve">
<g id="Layer_1">
</g>
<g id="_x31_2__x2F__Icons">
	<g>
		<g>
			<circle fill="none" cx="20" cy="20" r="20"/>
		</g>
		<g>
			<rect x="14.742" y="7.077" fill="#FFFFFF" width="9.398" height="5.59"/>
			<rect x="8.964" y="10.402" fill="#FFFFFF" width="15.315" height="22.335"/>
			<g>
				<rect x="24.279" y="16.241" fill="#CCCCCC" width="7.021" height="16.496"/>
				<polygon fill="none" stroke="#000000" stroke-linecap="round" stroke-linejoin="round" stroke-miterlimit="10" points="
					24.253,10.402 24.253,32.737 8.964,32.737 8.964,10.402 14.742,10.402 14.742,7.077 24.253,7.077 24.253,10.402 				"/>
				
					<rect x="24.253" y="16.241" fill="none" stroke="#000000" stroke-linecap="round" stroke-linejoin="round" stroke-miterlimit="10" width="7.047" height="16.496"/>
				
					<line fill="none" stroke="#000000" stroke-linecap="round" stroke-linejoin="round" stroke-miterlimit="10" x1="12.239" y1="21.625" x2="20.979" y2="21.625"/>
				
					<line fill="none" stroke="#000000" stroke-linecap="round" stroke-linejoin="round" stroke-miterlimit="10" x1="26.343" y1="26.097" x2="29.209" y2="26.097"/>
				
					<line fill="none" stroke="#000000" stroke-linecap="round" stroke-linejoin="round" stroke-miterlimit="10" x1="26.343" y1="22.546" x2="29.209" y2="22.546"/>
				
					<line fill="none" stroke="#000000" stroke-linecap="round" stroke-linejoin="round" stroke-miterlimit="10" x1="26.343" y1="18.998" x2="29.209" y2="18.998"/>
				
					<line fill="none" stroke="#000000" stroke-linecap="round" stroke-linejoin="round" stroke-miterlimit="10" x1="12.239" y1="18.305" x2="20.979" y2="18.305"/>
				
					<line fill="none" stroke="#000000" stroke-linecap="round" stroke-linejoin="round" stroke-miterlimit="10" x1="12.239" y1="14.983" x2="20.979" y2="14.983"/>
				
					<line fill="none" stroke="#000000" stroke-linecap="round" stroke-linejoin="round" stroke-miterlimit="10" x1="12.239" y1="10.402" x2="24.129" y2="10.402"/>
				
					<rect x="14.297" y="26.725" fill="none" stroke="#000000" stroke-linecap="round" stroke-linejoin="round" stroke-miterlimit="10" width="4.625" height="6.012"/>
			</g>
		</g>
	</g>
</g>
</svg>
