<?xml version="1.0" encoding="utf-8"?>
<!-- Generator: Adobe Illustrator 16.0.0, SVG Export Plug-In . SVG Version: 6.00 Build 0)  -->
<!DOCTYPE svg PUBLIC "-//W3C//DTD SVG 1.1//EN" "http://www.w3.org/Graphics/SVG/1.1/DTD/svg11.dtd">
<svg version="1.1" xmlns="http://www.w3.org/2000/svg" xmlns:xlink="http://www.w3.org/1999/xlink" x="0px" y="0px" width="40px"
	 height="40px" viewBox="0 0 40 40" enable-background="new 0 0 40 40" xml:space="preserve">
<g id="Layer_1">
</g>
<g id="_x31_2__x2F__Icons">
	<circle fill="none" cx="20.25" cy="20.108" r="20"/>
	<g>
		<polygon fill="#CCCCCC" points="21.953,8.477 21.953,17.29 30.743,17.219 		"/>
		<g>
			<polygon fill="#FFFFFF" points="9.271,8.477 21.705,8.477 21.705,16.865 30.996,17.29 30.996,31.671 9.271,31.671 			"/>
			<g>
				<path d="M9.204,32.269h21.592c0.261,0,0.473-0.218,0.473-0.487V17.387c0-0.13-0.05-0.252-0.141-0.346l-8.883-9.168
					c-0.091-0.093-0.208-0.143-0.335-0.143H9.204c-0.262,0-0.473,0.219-0.473,0.487v23.564C8.731,32.051,8.942,32.269,9.204,32.269z
					 M22.383,9.395l7.273,7.505h-7.273V9.395z M9.674,8.706h11.765v8.681c0,0.269,0.211,0.487,0.471,0.487h8.414v13.42H9.674V8.706z
					"/>
				<path d="M25.277,27.481H11.689c-0.26,0-0.473,0.219-0.473,0.488c0,0.269,0.213,0.486,0.473,0.486h13.588
					c0.26,0,0.471-0.217,0.471-0.486C25.748,27.7,25.537,27.481,25.277,27.481z"/>
				<path d="M25.277,23.922H11.689c-0.26,0-0.473,0.219-0.473,0.487s0.213,0.486,0.473,0.486h13.588c0.26,0,0.471-0.218,0.471-0.486
					S25.537,23.922,25.277,23.922z"/>
				<path d="M25.277,20.361H11.689c-0.26,0-0.473,0.22-0.473,0.488c0,0.269,0.213,0.487,0.473,0.487h13.588
					c0.26,0,0.471-0.218,0.471-0.487C25.748,20.581,25.537,20.361,25.277,20.361z"/>
				<path d="M17.376,16.802h-5.687c-0.26,0-0.473,0.218-0.473,0.488c0,0.269,0.213,0.486,0.473,0.486h5.687
					c0.26,0,0.471-0.217,0.471-0.486C17.847,17.021,17.636,16.802,17.376,16.802z"/>
			</g>
		</g>
	</g>
</g>
<g id="Node_icon">
</g>
</svg>
