<?xml version="1.0" encoding="utf-8"?>
<!-- Generator: Adobe Illustrator 16.0.0, SVG Export Plug-In . SVG Version: 6.00 Build 0)  -->
<!DOCTYPE svg PUBLIC "-//W3C//DTD SVG 1.1//EN" "http://www.w3.org/Graphics/SVG/1.1/DTD/svg11.dtd">
<svg version="1.1" xmlns="http://www.w3.org/2000/svg" xmlns:xlink="http://www.w3.org/1999/xlink" x="0px" y="0px" width="40px"
	 height="40px" viewBox="0 0 40 40" enable-background="new 0 0 40 40" xml:space="preserve">
<g id="Layer_1">
</g>
<g id="_x31_2__x2F__Icons">
	<circle fill="none" cx="20" cy="20" r="20"/>
	<g>
		<path fill="#CCCCCC" d="M20.181,29.125c0,0-11.188-11.087-7.636-17.198c3.553-6.109,7.636-5.358,7.636-5.358
			s6.049,0.087,7.759,5.453C29.982,18.436,20.181,29.125,20.181,29.125z"/>
		<g>
			<polygon fill="#FFFFFF" points="8.957,29.16 19.999,33.342 31.091,29.16 22.96,25.682 20.434,29.512 17.039,25.964 			"/>
			<ellipse fill="#FFFFFF" cx="20" cy="14.449" rx="2.96" ry="3.056"/>
			<path d="M20,10.957c-1.998,0-3.623,1.677-3.623,3.738c0,2.063,1.625,3.741,3.623,3.741s3.624-1.678,3.624-3.741
				C23.624,12.634,21.998,10.957,20,10.957z M20,17.434c-1.463,0-2.653-1.228-2.653-2.737c0-1.511,1.19-2.74,2.653-2.74
				c1.464,0,2.653,1.229,2.653,2.74C22.653,16.206,21.464,17.434,20,17.434z"/>
			<path d="M7.779,28.998c0,0.213,0.132,0.404,0.328,0.474l11.716,4.159c0.099,0.034,0.21,0.035,0.315,0l11.754-4.159
				c0.197-0.069,0.328-0.258,0.328-0.474c0-0.211-0.131-0.403-0.328-0.474l-8.238-2.923l0.229-0.31
				c0.228-0.311,0.459-0.63,0.69-0.958c2.837-4.004,4.275-7.094,4.275-9.18c0-5.035-3.971-9.133-8.85-9.133
				c-4.88,0-8.85,4.098-8.85,9.133c0,2.085,1.439,5.175,4.276,9.18c0.233,0.331,0.466,0.652,0.695,0.963l0.23,0.31l-8.245,2.917
				C7.912,28.595,7.779,28.784,7.779,28.998z M12.121,15.153c0-4.483,3.533-8.132,7.879-8.132c4.345,0,7.879,3.649,7.879,8.132
				c0,4.075-6.888,12.286-7.674,13.208L20,28.603l-0.206-0.242C19.01,27.439,12.121,19.233,12.121,15.153z M16.986,26.442
				l0.119,0.155c1.412,1.822,2.525,3.076,2.536,3.089c0.185,0.209,0.533,0.207,0.716,0.001c0.012-0.014,1.128-1.269,2.543-3.098
				l0.12-0.156l7.223,2.565l-10.264,3.629L9.758,28.999L16.986,26.442z"/>
		</g>
	</g>
</g>
<g id="Node_icon">
</g>
</svg>
