<?xml version="1.0" encoding="utf-8"?>
<!-- Generator: Adobe Illustrator 16.0.0, SVG Export Plug-In . SVG Version: 6.00 Build 0)  -->
<!DOCTYPE svg PUBLIC "-//W3C//DTD SVG 1.1//EN" "http://www.w3.org/Graphics/SVG/1.1/DTD/svg11.dtd">
<svg version="1.1" xmlns="http://www.w3.org/2000/svg" xmlns:xlink="http://www.w3.org/1999/xlink" x="0px" y="0px" width="40px"
	 height="40px" viewBox="0 0 40 40" enable-background="new 0 0 40 40" xml:space="preserve">
<g id="Layer_1">
</g>
<g id="_x31_2__x2F__Icons">
	<g>
		<path fill="none" d="M40,20.001C40,31.046,31.045,40,20,40C8.955,40,0,31.046,0,20.001C0,8.953,8.955,0,20,0
			C31.045,0,40,8.953,40,20.001z"/>
		<path d="M8.138,31.144c0,0,2.125-7.639,8.436-8.152c0.434-0.035,3.418,4.834,3.418,4.834s2.56-4.636,3.244-4.82
			c0.683-0.184,8.393,1.608,8.816,7.951C32.077,31.33,8.138,31.144,8.138,31.144z"/>
		<g>
			<polygon fill="#FFFFFF" points="16.958,23.141 23.14,22.861 20.096,28.357 			"/>
			<path fill="#FFFFFF" d="M13.98,16.106c-0.156-0.326-1.489-4.423-1.489-4.423s0.631-4.613,3.972-5.543
				c3.339-0.931,6.035-0.998,8.483,0.838c2.448,1.836,2.752,5.636,2.752,5.636l-1.851,3.073c0,0-0.301,7.166-5.751,7.173
				C14.645,22.867,14.1,16.354,13.98,16.106z"/>
			<path d="M28.553,24.837c-1.447-1.053-3.238-1.827-5.182-2.239l-0.6-0.126l0.496-0.373c1.736-1.303,2.843-3.55,2.96-6.011
				l0.003-0.066l1.922-3.494c0.047-0.084,0.069-0.181,0.061-0.278c-0.005-0.075-0.148-1.831-1.232-3.603
				c-0.999-1.635-3.014-3.583-6.935-3.583h-0.095c-3.92,0-5.933,1.948-6.933,3.583c-1.084,1.773-1.228,3.528-1.234,3.603
				c-0.006,0.097,0.014,0.193,0.062,0.277l1.923,3.488l0.002,0.067c0.116,2.463,1.225,4.714,2.96,6.017l0.499,0.373l-0.602,0.126
				c-1.943,0.412-3.736,1.186-5.183,2.239c-2.343,1.705-3.63,3.988-3.63,6.424c0,0.269,0.21,0.488,0.47,0.488h23.425
				c0.26,0,0.473-0.219,0.473-0.488C32.185,28.823,30.894,26.542,28.553,24.837z M14.705,15.773
				c-0.182-0.343-1.219-2.233-1.918-3.508l-0.045-0.083l0.013-0.095c0.144-1.012,1.167-6.05,7.198-6.05h0.047
				c6.077,0,7.1,5.039,7.245,6.05l0.012,0.095l-0.045,0.083c-0.7,1.271-1.738,3.168-1.918,3.507c-0.058,3.58-2.424,6.48-5.293,6.48
				C17.125,22.253,14.761,19.352,14.705,15.773z M22.273,23.384l-2.272,4.063l-2.274-4.063l0.41-0.047
				c1.231-0.146,2.494-0.146,3.726,0L22.273,23.384z M31.228,30.775h-4.99v-2.434c0-0.269-0.212-0.487-0.47-0.487
				c-0.261,0-0.474,0.218-0.474,0.487v2.434h-10.59v-2.434c0-0.269-0.211-0.487-0.47-0.487c-0.261,0-0.472,0.218-0.472,0.487v2.434
				H8.77l0.046-0.318c0.256-1.831,1.355-3.498,3.174-4.825c1.28-0.931,2.861-1.629,4.567-2.021l0.231-0.053l0.081,0.229
				c0.009,0.023,0.018,0.047,0.03,0.069l2.69,4.809c0.168,0.301,0.651,0.301,0.818,0.001l2.692-4.811
				c0.014-0.024,0.023-0.049,0.031-0.071l0.084-0.226l0.228,0.053c1.708,0.392,3.286,1.09,4.567,2.021
				c1.821,1.328,2.918,2.995,3.174,4.825L31.228,30.775z"/>
		</g>
	</g>
</g>
</svg>
