<?xml version="1.0" encoding="utf-8"?>
<!-- Generator: Adobe Illustrator 16.0.0, SVG Export Plug-In . SVG Version: 6.00 Build 0)  -->
<!DOCTYPE svg PUBLIC "-//W3C//DTD SVG 1.1//EN" "http://www.w3.org/Graphics/SVG/1.1/DTD/svg11.dtd">
<svg version="1.1" xmlns="http://www.w3.org/2000/svg" xmlns:xlink="http://www.w3.org/1999/xlink" x="0px" y="0px" width="40px"
	 height="40px" viewBox="0 0 40 40" enable-background="new 0 0 40 40" xml:space="preserve">
<g id="Layer_1">
</g>
<g id="_x31_2__x2F__Icons">
	<circle fill="none" cx="20" cy="20" r="20"/>
	<g>
		<polygon fill="#CCCCCC" points="23.86,24.028 24.816,22.97 31.58,27.412 29.461,29.668 		"/>
		<polygon fill="#CCCCCC" points="10.402,10.351 12.526,8.236 17.438,14.439 16.072,16.131 		"/>
		<g>
			<path fill="#FFFFFF" d="M10.504,10.966l5.192,4.982l-0.32,1.645c0,0,1.061,2.851,1.686,3.618
				c2.065,2.537,5.777,3.912,5.236,3.761l1.44-0.705l5.244,5.464L26.399,31.5l-5.92-2.063l-6.285-5.499l-4.371-6.252l-0.867-5.311
				L10.504,10.966z"/>
			<path d="M31.853,27.534c-0.009-0.138-0.074-0.265-0.181-0.348l-6.278-4.948c-0.18-0.14-0.448-0.121-0.607,0.042l-1.559,1.609
				c-0.334,0.345-0.749,0.598-1.213,0.521c-1.502-0.25-3.039-2.007-3.594-2.604c-0.062-0.065-0.105-0.112-0.125-0.131
				c-0.04-0.044-0.077-0.08-0.128-0.133c-2.815-2.925-2.714-4.216-2.006-4.946l1.559-1.608c0.163-0.169,0.18-0.438,0.042-0.627
				l-4.794-6.48c-0.083-0.109-0.204-0.178-0.337-0.187h-0.002c-0.153,0-0.27,0.051-0.355,0.138l-2.838,2.938
				c-1.536,1.741-1.483,4.254,0.156,7.463c1.857,3.643,3.997,6.048,5.107,7.157c1.084,1.155,3.42,3.366,6.94,5.28
				c1.6,0.87,3.046,1.31,4.296,1.31c1.709,0,2.601-0.834,2.937-1.149l0.087-0.081l2.761-2.849
				C31.813,27.805,31.862,27.67,31.853,27.534z M12.561,8.9l4.222,5.709l-0.987,1.017l-4.875-5.032L12.561,8.9z M28.217,30.15
				c-0.005,0.007-0.762,0.811-2.403,0.811c-1.13,0-2.392-0.381-3.747-1.134c-1.21-0.671-4.282-2.5-6.699-4.988
				c-2.581-2.661-4.449-6.064-4.96-7.044c-2.269-4.344-0.333-6.331-0.313-6.347l0.192-0.158l4.923,5.079l-0.073,0.176
				c-0.187,0.454-0.361,1.011-0.229,1.7c0.449,2.321,4.901,6.653,6.71,6.936c0.193,0.029,0.374,0.042,0.539,0.042
				c0.489,0,0.788-0.13,1.078-0.258l0.169-0.075l0.173,0.116l4.792,4.947L28.217,30.15z M29.042,29.299l-4.873-5.032l0.982-1.02
				l5.533,4.357L29.042,29.299z"/>
		</g>
	</g>
</g>
<g id="Node_icon">
</g>
</svg>
