<?xml version="1.0" encoding="utf-8"?>
<!-- Generator: Adobe Illustrator 16.0.0, SVG Export Plug-In . SVG Version: 6.00 Build 0)  -->
<!DOCTYPE svg PUBLIC "-//W3C//DTD SVG 1.1//EN" "http://www.w3.org/Graphics/SVG/1.1/DTD/svg11.dtd">
<svg version="1.1" xmlns="http://www.w3.org/2000/svg" xmlns:xlink="http://www.w3.org/1999/xlink" x="0px" y="0px" width="40px"
	 height="40px" viewBox="0 0 40 40" enable-background="new 0 0 40 40" xml:space="preserve">
<g id="Layer_1">
</g>
<g id="_x31_2__x2F__Icons">
	<g>
		<g>
			<circle fill="none" cx="20" cy="20" r="20"/>
		</g>
		<g>
			<path d="M23.552,17.821c0.373-0.289,0.72-0.647,1.03-1.065c0.311-0.417,0.572-0.914,0.777-1.476
				c0.202-0.553,0.305-1.23,0.305-2.012c0-0.773-0.147-1.514-0.437-2.201c-0.29-0.688-0.698-1.298-1.214-1.813
				c-0.515-0.515-1.125-0.923-1.813-1.213c-1.371-0.579-3.03-0.579-4.401,0c-0.687,0.29-1.289,0.697-1.791,1.21
				c-0.508,0.518-0.918,1.131-1.221,1.823c-0.299,0.684-0.451,1.422-0.451,2.195c0,0.195,0.071,0.357,0.224,0.509
				c0.32,0.321,0.759,0.29,1.028,0.008c0.146-0.153,0.214-0.318,0.214-0.518c0-0.582,0.107-1.133,0.32-1.639
				c0.214-0.506,0.519-0.953,0.906-1.327c0.38-0.367,0.825-0.667,1.323-0.89C18.861,9.185,19.415,9.07,20,9.07
				c0.584,0,1.139,0.115,1.647,0.343c0.501,0.225,0.941,0.526,1.313,0.896c0.37,0.372,0.672,0.813,0.896,1.312
				c0.228,0.51,0.343,1.065,0.343,1.649c0,1.159-0.282,2.049-0.838,2.647c-0.496,0.533-1.107,1.039-1.818,1.505
				c-0.29,0.201-0.602,0.426-0.925,0.668c-0.295,0.22-0.568,0.482-0.812,0.78c-0.238,0.291-0.438,0.627-0.595,1.002
				c-0.149,0.36-0.226,0.793-0.226,1.287v2.025c0,0.366,0.01,0.661,0.033,0.882l0.002,2.059c0,0.2,0.068,0.365,0.214,0.518
				c0.268,0.28,0.708,0.311,1.028-0.009c0.152-0.152,0.224-0.314,0.224-0.509v-2.043c0-0.104-0.006-0.22-0.016-0.346
				c-0.014-0.151-0.02-0.342-0.02-0.57v-2.008c0-0.582,0.186-1.062,0.551-1.428c0.297-0.296,0.751-0.655,1.391-1.097
				C22.77,18.397,23.153,18.128,23.552,17.821z"/>
			<path d="M19.647,30.569c-0.268,0-0.474,0.082-0.649,0.258c-0.177,0.177-0.259,0.383-0.259,0.651s0.082,0.474,0.258,0.649
				c0.353,0.354,0.947,0.354,1.301,0c0.177-0.176,0.259-0.383,0.259-0.65s-0.082-0.474-0.259-0.651
				C20.121,30.652,19.914,30.569,19.647,30.569z"/>
		</g>
	</g>
</g>
</svg>
